<?xml version="1.0" encoding="UTF-8"?>
<svg id="b" data-name="Layer 2" xmlns="http://www.w3.org/2000/svg" viewBox="0 0 638.42 180">
  <g id="c" data-name="text 6">
    <g>
      <g>
        <g>
          <path d="M79.9,65.42v81.06h-27.33v-29.87H27.33v29.87H0V65.42H27.33v28.72h25.25v-28.72h27.33Z" style="fill: #fce8d2;"/>
          <path d="M163.4,125.87v20.61H96V65.42h65.89v20.61h-39.03v9.5h34.28v19.69h-34.28v10.65h40.53Z" style="fill: #fce8d2;"/>
          <path d="M211.57,126.1h-7.41v20.38h-27.33V65.42h39.02c22.58,0,36.94,11.81,36.94,30.57,0,11.69-5.56,20.5-15.29,25.48l17.02,25.01h-29.18l-13.78-20.38Zm2.55-39.6h-9.96v18.99h9.96c7.53,0,11.12-3.59,11.12-9.5s-3.59-9.5-11.12-9.5Z" style="fill: #fce8d2;"/>
          <path d="M327.02,86.62h-23.74v-21.19h74.81v21.19h-23.74v59.87h-27.33v-59.87Z" style="fill: #fce8d2;"/>
          <path d="M439.24,132.36h-30.81l-5.44,14.12h-27.79l35.43-81.06h26.87l35.43,81.06h-28.26l-5.44-14.12Zm-7.53-19.69l-7.87-20.38-7.87,20.38h15.75Z" style="fill: #fce8d2;"/>
          <path d="M532.69,103.75h23.74v34.28c-9.84,6.71-23.39,10.31-35.32,10.31-26.17,0-45.28-17.49-45.28-42.38s19.1-42.38,45.85-42.38c15.98,0,28.83,5.56,37.06,15.63l-17.48,15.4c-5.1-5.9-11-8.92-18.18-8.92-12.04,0-19.69,7.76-19.69,20.27s7.64,20.26,19.34,20.26c3.36,0,6.6-.58,9.96-1.97v-20.5Z" style="fill: #fce8d2;"/>
          <path d="M638.42,125.87v20.61h-67.39V65.42h65.89v20.61h-39.03v9.5h34.28v19.69h-34.28v10.65h40.53Z" style="fill: #fce8d2;"/>
        </g>
        <path d="M267.39,148.34h27.73c-1.93-11.18-3.48-23.77-4.18-37.58-.87-17.19-.23-32.73,1.08-46.17,.84-4.5,3.37-14.22,11.76-21.44,6.96-6,15.31-7.98,18.96-8.84,3.28-.78,4.41-.69,11.66-1.93,6.47-1.1,11.72-2.21,15.2-3,5.69-1.25,8.66-4.89,8.13-7.06-.43-1.77-3.33-3.07-6.74-3.25-3.12-.01-8.59,.03-15.41,.46-19.62,1.25-33.68,4.68-34.78,1.61-.1-.29-.16-.82,.43-1.71,2.59-1.13,6.35-2.65,11.02-4.07,11.33-3.43,18.93-3.51,20.44-7.92,.06-.17,.58-1.76-.11-3.32-1.15-2.62-5.19-3.94-10.27-3.42-16.28-.74-30.07-.79-40.56-.64-14.77,.21-44.35,1.12-48.47,9.74-.28,.58-1.08,2.26-.43,3.75,.99,2.23,4.66,2.62,12.09,3,3.99,.2,9.11,.4,15.12,.49,.52,.53,1.13,1.31,.94,1.97-.58,1.93-7.56,1.4-9.52,1.28-15.89-.97-50.99,3.27-52.24,11.2-.21,1.31,.56,2.42,.76,2.7,4.34,6.26,24.9-7.58,37.64,.19,.13,.08,3.37,2.08,2.98,3.36-.59,1.97-8.81-.76-17.28,3.25-.33,.16-6.79,3.26-6.32,5.4,.67,3,13.96-1,30.5,4.6,3.61,1.22,12.5,4.36,18.5,12.71,1.3,1.81,3.94,5.91,6.11,18.75,2.69,15.92,1.92,28.98,1.3,35.62-.72,7.71-2.31,18.17-6.02,30.25Z" style="fill: #f15a24;"/>
      </g>
      <g>
        <path d="M530.52,175.61h-10.85l-1.78,3.91h-4.24l9.31-20.76h4.27l9.31,20.76h-4.27l-1.75-3.91Zm-5.43-12.48l-3.85,8.84h7.71l-3.86-8.84Z" style="fill: #f15a24;"/>
        <path d="M540.97,179.52v-20.73h14.91v3.77h-11v5.66h10.41v3.62h-10.41v7.68h-3.91Z" style="fill: #f15a24;"/>
        <path d="M579.98,179.52h-4.65l-6.05-6.94h-3.77v6.94h-3.91v-20.79c3.29,0,6.58,.03,9.87,.03,4.89,.03,7.47,3.29,7.47,6.88,0,2.85-1.31,5.72-5.25,6.52l6.28,7.09v.27Zm-14.47-17.11v6.64h5.96c2.49,0,3.56-1.66,3.56-3.32s-1.1-3.32-3.56-3.32h-5.96Z" style="fill: #f15a24;"/>
        <path d="M584.58,179.52v-20.76h3.88v20.76h-3.88Z" style="fill: #f15a24;"/>
        <path d="M613.41,176.91c-2.13,2.11-4.89,3.09-7.89,3.09-7.71,0-10.97-5.31-11-10.71-.03-5.43,3.5-10.94,11-10.94,2.82,0,5.49,1.07,7.62,3.17l-2.61,2.52c-1.36-1.33-3.2-1.96-5.01-1.96-5.01,0-7.18,3.74-7.14,7.2,.03,3.44,2.02,7.03,7.14,7.03,1.81,0,3.86-.74,5.22-2.11l2.67,2.7Z" style="fill: #f15a24;"/>
        <path d="M632.4,175.61h-10.85l-1.78,3.91h-4.24l9.31-20.76h4.27l9.31,20.76h-4.27l-1.75-3.91Zm-5.43-12.48l-3.85,8.84h7.71l-3.86-8.84Z" style="fill: #f15a24;"/>
      </g>
    </g>
  </g>
</svg>